<svg version="1.1" viewBox="0.0 0.0 100.0 100.0" fill="none" stroke="none" stroke-linecap="square" stroke-miterlimit="10" xmlns:xlink="http://www.w3.org/1999/xlink" xmlns="http://www.w3.org/2000/svg"><clipPath id="p.0"><path d="m0 0l100.0 0l0 100.0l-100.0 0l0 -100.0z" clip-rule="nonzero"/></clipPath><g clip-path="url(#p.0)"><path fill="#000000" fill-opacity="0.0" d="m0 0l100.0 0l0 100.0l-100.0 0z" fill-rule="evenodd"/><path fill="#000000" d="m3.9199476 35.412075l0 0c0 -3.9486198 3.2009878 -7.1496086 7.1496058 -7.1496086l0 0c1.8961935 0 3.7147245 0.75326157 5.0555363 2.0940723c1.3408108 1.3408108 2.0940704 3.1593418 2.0940704 5.0555363l0 0c0 3.948616 -3.2009878 7.149605 -7.1496067 7.149605l0 0c-3.948618 0 -7.1496058 -3.2009888 -7.1496058 -7.149605z" fill-rule="evenodd"/><path fill="#000000" fill-opacity="0.0" d="m18.21916 23.83727l50.20472 0l0 23.149607l-50.20472 0z" fill-rule="evenodd"/><path fill="#000000" d="m34.875412 39.152073l-1.671875 0l-0.671875 -1.734375l-3.046877 0l-0.625 1.734375l-1.640625 0l2.96875 -7.625l1.625 0l3.062502 7.625zm-2.84375 -3.015625l-1.0468769 -2.828125l-1.03125 2.828125l2.078127 0zm3.6643524 -4.609375l3.046875 0q0.90625 0 1.34375 0.078125q0.453125 0.0625 0.796875 0.3125q0.359375 0.234375 0.59375 0.640625q0.234375 0.390625 0.234375 0.890625q0 0.53125 -0.296875 0.984375q-0.28125 0.4375 -0.78125 0.671875q0.703125 0.203125 1.078125 0.6875q0.375 0.484375 0.375 1.140625q0 0.53125 -0.25 1.03125q-0.234375 0.484375 -0.65625 0.78125q-0.421875 0.28125 -1.03125 0.359375q-0.390625 0.03125 -1.859375 0.046875l-2.59375 0l0 -7.625zm1.546875 1.265625l0 1.765625l1.0 0q0.90625 0 1.125 -0.03125q0.390625 -0.046875 0.609375 -0.265625q0.234375 -0.234375 0.234375 -0.59375q0 -0.359375 -0.203125 -0.578125q-0.1875 -0.21875 -0.578125 -0.265625q-0.21875 -0.03125 -1.3125 -0.03125l-0.875 0zm0 3.03125l0 2.046875l1.421875 0q0.828125 0 1.046875 -0.046875q0.34375 -0.0625 0.5625 -0.296875q0.21875 -0.25 0.21875 -0.65625q0 -0.34375 -0.171875 -0.578125q-0.15625 -0.25 -0.484375 -0.359375q-0.3125 -0.109375 -1.359375 -0.109375l-1.234375 0zm11.023727 0.53125l1.5 0.46875q-0.34375 1.25 -1.15625 1.859375q-0.796875 0.59375 -2.015625 0.59375q-1.515625 0 -2.5 -1.03125q-0.984375 -1.046875 -0.984375 -2.84375q0 -1.90625 0.984375 -2.953125q0.984375 -1.0625 2.59375 -1.0625q1.390625 0 2.265625 0.828125q0.53125 0.5 0.78125 1.40625l-1.515625 0.375q-0.140625 -0.59375 -0.578125 -0.9375q-0.421875 -0.34375 -1.03125 -0.34375q-0.859375 0 -1.390625 0.609375q-0.515625 0.609375 -0.515625 1.96875q0 1.4375 0.515625 2.0625q0.515625 0.609375 1.359375 0.609375q0.609375 0 1.046875 -0.390625q0.453125 -0.390625 0.640625 -1.21875zm2.8049774 -4.828125l2.8125 0q0.953125 0 1.453125 0.140625q0.671875 0.203125 1.15625 0.703125q0.484375 0.5 0.734375 1.234375q0.25 0.734375 0.25 1.8125q0 0.9375 -0.234375 1.609375q-0.296875 0.84375 -0.828125 1.359375q-0.390625 0.390625 -1.078125 0.609375q-0.515625 0.15625 -1.359375 0.15625l-2.90625 0l0 -7.625zm1.546875 1.28125l0 5.0625l1.140625 0q0.65625 0 0.9375 -0.078125q0.375 -0.09375 0.625 -0.3125q0.25 -0.234375 0.40625 -0.734375q0.15625 -0.515625 0.15625 -1.40625q0 -0.875 -0.15625 -1.34375q-0.15625 -0.484375 -0.4375 -0.75q-0.28125 -0.265625 -0.71875 -0.359375q-0.328125 -0.078125 -1.265625 -0.078125l-0.6875 0z" fill-rule="nonzero"/><path fill="#000000" d="m65.77034 37.406837l0 0c0 -0.4058838 0.32904053 -0.7349205 0.7349243 -0.7349205l28.829369 0c0.19490814 0 0.38184357 0.07742691 0.5196686 0.21525192c0.13782501 0.13782501 0.21525574 0.32475662 0.21525574 0.5196686l0 2.9396057c0 0.4058838 -0.32904053 0.7349205 -0.7349243 0.7349205l-28.829369 0c-0.4058838 0 -0.7349243 -0.3290367 -0.7349243 -0.7349205z" fill-rule="evenodd"/><path fill="#000000" d="m4.7677164 48.603676l19.307087 0l0 4.4094467l-19.307087 0z" fill-rule="evenodd"/><path fill="#000000" d="m27.140419 48.603676l19.307087 0l0 4.4094467l-19.307087 0z" fill-rule="evenodd"/><path fill="#000000" d="m51.368767 48.603676l19.307083 0l0 4.4094467l-19.307083 0z" fill-rule="evenodd"/><path fill="#000000" d="m75.597115 48.603676l19.307083 0l0 4.4094467l-19.307083 0z" fill-rule="evenodd"/><path fill="#d9d9d9" d="m4.7677164 53.013123l74.64567 0l0 23.149605l-74.64567 0z" fill-rule="evenodd"/><path fill="#666666" d="m7.8333335 56.283466l19.307085 0l0 4.4094467l-19.307085 0z" fill-rule="evenodd"/><path fill="#666666" d="m7.8333335 62.3832l19.307085 0l0 4.4094467l-19.307085 0z" fill-rule="evenodd"/><path fill="#666666" d="m7.8333335 68.48294l19.307085 0l0 4.4094467l-19.307085 0z" fill-rule="evenodd"/><path fill="#666666" d="m32.06168 56.283466l19.307087 0l0 4.4094467l-19.307087 0z" fill-rule="evenodd"/><path fill="#666666" d="m56.290028 56.283466l19.307087 0l0 4.4094467l-19.307087 0z" fill-rule="evenodd"/><path fill="#666666" d="m32.06168 62.3832l19.307087 0l0 4.4094467l-19.307087 0z" fill-rule="evenodd"/><path fill="#666666" d="m56.290028 62.3832l19.307087 0l0 4.4094467l-19.307087 0z" fill-rule="evenodd"/><path fill="#666666" d="m32.06168 68.48294l19.307087 0l0 4.4094467l-19.307087 0z" fill-rule="evenodd"/><path fill="#666666" d="m82.41076 33.288715l13.669296 0l0 2.2677155l-13.669296 0z" fill-rule="evenodd"/><path fill="#666666" d="m65.77034 33.288715l13.669296 0l0 2.2677155l-13.669296 0z" fill-rule="evenodd"/></g></svg>